<?xml version="1.0" encoding="UTF-8" standalone="no"?>
<!-- Created with Inkscape (http://www.inkscape.org/) -->

<svg
   xmlns:dc="http://purl.org/dc/elements/1.1/"
   xmlns:cc="http://creativecommons.org/ns#"
   xmlns:rdf="http://www.w3.org/1999/02/22-rdf-syntax-ns#"
   xmlns:svg="http://www.w3.org/2000/svg"
   xmlns="http://www.w3.org/2000/svg"
   xmlns:sodipodi="http://sodipodi.sourceforge.net/DTD/sodipodi-0.dtd"
   xmlns:inkscape="http://www.inkscape.org/namespaces/inkscape"
   width="108"
   height="108"
   id="svg30807"
   version="1.1"
   inkscape:version="0.48.5 r10040"
   sodipodi:docname="ic_control_config.svg"
   inkscape:export-filename="/Users/simon/android/dmach/art/xxhdpi/ic_control_config_large.png"
   inkscape:export-xdpi="143.33333"
   inkscape:export-ydpi="143.33333">
  <defs
     id="defs30809" />
  <sodipodi:namedview
     id="base"
     pagecolor="#ffffff"
     bordercolor="#666666"
     borderopacity="1.0"
     inkscape:pageopacity="0.0"
     inkscape:pageshadow="2"
     inkscape:zoom="1.75"
     inkscape:cx="63.139241"
     inkscape:cy="54.10338"
     inkscape:document-units="px"
     inkscape:current-layer="layer1"
     showgrid="false"
     fit-margin-top="0"
     fit-margin-left="0"
     fit-margin-right="0"
     fit-margin-bottom="0"
     inkscape:window-width="471"
     inkscape:window-height="422"
     inkscape:window-x="551"
     inkscape:window-y="13"
     inkscape:window-maximized="0" />
  <metadata
     id="metadata30812">
    <rdf:RDF>
      <cc:Work
         rdf:about="">
        <dc:format>image/svg+xml</dc:format>
        <dc:type
           rdf:resource="http://purl.org/dc/dcmitype/StillImage" />
        <dc:title></dc:title>
      </cc:Work>
    </rdf:RDF>
  </metadata>
  <g
     inkscape:label="Layer 1"
     inkscape:groupmode="layer"
     id="layer1"
     transform="translate(-507.28542,-434.21962)">
    <path
       inkscape:connector-curvature="0"
       id="path16215"
       style="fill:#ebeaaf;fill-opacity:1;fill-rule:nonzero;stroke:none"
       d="m 561.28542,511.36755 c -12.78717,0 -23.14793,-10.34305 -23.14793,-23.16564 0,-12.80482 10.36076,-23.13022 23.14793,-23.13022 12.76946,0 23.14793,10.3254 23.14793,23.13022 0,12.82259 -10.37847,23.16564 -23.14793,23.16564 z m 54,-15.44378 0,-15.42601 -12.30895,0 c -1.09808,-5.93314 -3.41816,-11.49426 -6.74776,-16.36474 l 8.69595,-8.62511 -10.90982,-10.96296 -8.69596,8.71373 c -4.81734,-3.31195 -10.36075,-5.63203 -16.32931,-6.69469 l 0,-12.34437 -15.42601,0 0,12.34437 c -5.95085,1.06266 -11.51197,3.38274 -16.3116,6.69469 l -8.69596,-8.71373 -10.90982,10.96296 8.69595,8.62511 c -3.3296,4.87048 -5.66739,10.4316 -6.74776,16.36474 l -12.30895,0 0,15.42601 12.30895,0 c 1.08037,5.95085 3.41816,11.49426 6.74776,16.34702 l -8.69595,8.64282 10.90982,10.96297 8.69596,-8.71367 c 4.79963,3.31189 10.36075,5.63197 16.3116,6.71234 l 0,12.34437 15.42601,0 0,-12.34437 c 5.96856,-1.08037 11.51197,-3.40045 16.32931,-6.71234 l 8.69596,8.71367 10.90982,-10.96297 -8.69595,-8.64282 c 3.3296,-4.85276 5.64968,-10.39617 6.74776,-16.34702 l 12.30895,0" />
  </g>
</svg>
