<?xml version="1.0" encoding="UTF-8" standalone="no"?>
<!-- Generator: IcoMoon.io -->

<svg
   xmlns:dc="http://purl.org/dc/elements/1.1/"
   xmlns:cc="http://creativecommons.org/ns#"
   xmlns:rdf="http://www.w3.org/1999/02/22-rdf-syntax-ns#"
   xmlns:svg="http://www.w3.org/2000/svg"
   xmlns="http://www.w3.org/2000/svg"
   xmlns:sodipodi="http://sodipodi.sourceforge.net/DTD/sodipodi-0.dtd"
   xmlns:inkscape="http://www.inkscape.org/namespaces/inkscape"
   width="512"
   height="512"
   viewBox="0 0 512 512"
   id="svg2"
   version="1.1"
   inkscape:version="0.48.5 r10040"
   sodipodi:docname="cogs.svg"
   style="fill:#000000">
  <metadata
     id="metadata73">
    <rdf:RDF>
      <cc:Work
         rdf:about="">
        <dc:format>image/svg+xml</dc:format>
        <dc:type
           rdf:resource="http://purl.org/dc/dcmitype/StillImage" />
        <dc:title></dc:title>
      </cc:Work>
    </rdf:RDF>
  </metadata>
  <defs
     id="defs71" />
  <sodipodi:namedview
     pagecolor="#ffffff"
     bordercolor="#666666"
     borderopacity="1"
     objecttolerance="10"
     gridtolerance="10"
     guidetolerance="10"
     inkscape:pageopacity="0"
     inkscape:pageshadow="2"
     inkscape:window-width="1024"
     inkscape:window-height="760"
     id="namedview69"
     showgrid="false"
     fit-margin-top="0"
     fit-margin-left="0"
     fit-margin-right="0"
     fit-margin-bottom="0"
     inkscape:zoom="0.46"
     inkscape:cx="49.358696"
     inkscape:cy="256"
     inkscape:window-x="0"
     inkscape:window-y="0"
     inkscape:window-maximized="0"
     inkscape:current-layer="svg2" />
  <path
     id="path3054"
     d="m 256,329.14303 c -40.39723,0 -73.14302,-32.74683 -73.14302,-73.14303 0,-40.3962 32.74579,-73.14303 73.14302,-73.14303 40.3972,0 73.14303,32.74683 73.14303,73.14303 0,40.3962 -32.74583,73.14303 -73.14303,73.14303 z M 415.68254,166.91638 462.88026,100.84139 411.16065,49.119868 345.08362,96.315241 C 332.82987,89.465019 319.70736,84.002232 305.92196,80.095842 L 292.57136,0 219.42862,0 206.08,80.0982 c -13.78505,3.906393 -26.90763,9.369071 -39.16122,16.219292 L 100.84125,49.119868 49.12004,100.84139 96.317674,166.91638 c -6.850256,12.25136 -12.313113,25.37868 -16.219388,39.16166 L 0,219.42864 l 0,73.14272 80.098286,13.3506 c 3.906275,13.78298 9.369132,26.90791 16.219388,39.16166 l -47.197634,66.07501 51.71891,51.72163 66.07762,-47.19543 c 12.25357,6.85021 25.37606,12.31289 39.16124,16.21943 L 219.42862,512 292.57136,512 305.92,431.90187 c 13.78494,-3.90651 26.90775,-9.36904 39.16123,-16.21933 l 66.0774,47.19533 51.71924,-51.72148 -47.19747,-66.07516 c 6.85013,-12.25136 12.31254,-25.37837 16.21935,-39.16123 L 512,292.57136 l 0,-73.14272 -80.09813,-13.3506 c -3.90651,-13.78298 -9.36904,-26.90791 -16.21933,-39.16166 z"
     inkscape:connector-curvature="0"
     style="fill:#ebebaf;fill-opacity:0.94117647" />
</svg>
